<?xml version="1.0" encoding="utf-8"?>
<!-- Generator: Adobe Illustrator 27.5.0, SVG Export Plug-In . SVG Version: 6.00 Build 0)  -->
<svg version="1.1" xmlns="http://www.w3.org/2000/svg" xmlns:xlink="http://www.w3.org/1999/xlink" x="0px" y="0px"
	 viewBox="0 0 500 500" style="enable-background:new 0 0 500 500;" xml:space="preserve">
<g id="BACKGROUND">
	<rect style="fill:#FFFFFF;" width="500" height="500"/>
</g>
<g id="OBJECTS">
	<path style="opacity:0.6;fill:#800eb5;" d="M440.581,344.586c0,0-73.496,119.994-226.489,79.496
		C61.1,383.584-37.286,238.964,65.6,95.598c91.495-127.494,170.991,49.498,269.987,37.498
		C434.581,121.097,536.576,229.092,440.581,344.586z"/>
	<g>
		<g>
			<g>
				<path style="fill:#e9dfed;" d="M198.016,307.968c0,0-39.873,22.957-48.331,97.87S150.262,500,150.262,500h77.329l7.881-56.705
					L254.84,500h94.245c0,0,12.048-120.744-68.907-187.199C199.225,246.346,198.016,307.968,198.016,307.968z"/>
				<g>
					<path style="fill:#e9dfed;" d="M283.157,315.34c-0.982-0.856-1.967-1.709-2.978-2.539
						c-80.954-66.455-82.163-4.833-82.163-4.833s-4.292,2.471-10.359,8.439C218.723,329.417,254.59,331.968,283.157,315.34z"/>
					<path style="fill:#e9dfed;" d="M221.592,469.594c3.115,2.649,6.306,5.242,9.563,7.766l4.024-31.744
						c-21.985-6.216-43.118-15.65-61.99-28.215C187.323,436.56,203.563,454.265,221.592,469.594z"/>
				</g>
			</g>
			<g>
				<g>
					<path style="fill:none;stroke:#e9dfed;stroke-width:1.0698;stroke-linecap:round;stroke-linejoin:round;" d="M280.135,323.414
						c0,0,1.096,0.672,2.985,2.251"/>
					
						<path style="fill:none;stroke:#e9dfed;stroke-width:1.0698;stroke-linecap:round;stroke-linejoin:round;stroke-dasharray:7.2423,7.2423;" d="
						M288.379,330.633c14.62,15.322,44.001,58.37,48.731,159.846"/>
					<path style="fill:none;stroke:#e9dfed;stroke-width:1.0698;stroke-linecap:round;stroke-linejoin:round;" d="M337.268,494.118
						c0.05,1.239,0.096,2.486,0.139,3.742"/>
				</g>
			</g>
		</g>
		<g>
			<path style="fill:#252028;" d="M273.533,69.939l-0.604-10.875c0,0-7.854-12.083-30.207-6.646
				c-22.353,5.437-14.499,35.644-29.603,45.31c-15.103,9.666-27.79,12.083-25.978,44.706c1.812,32.623,2.416,57.997,55.58,57.393
				c53.164-0.604,55.58,23.561,65.247-5.437S345.425,101.354,273.533,69.939z"/>
			<g>
				<g>
					<path style="fill:#965450;" d="M246.951,167.205c0,0-3.021,31.415-12.083,28.999s-21.749-24.77-41.685-4.833
						c-19.936,19.936,38.665,67.059,65.247,65.851c26.582-1.208,76.725-7.25,73.1-24.165c-3.625-16.916-34.436-18.728-51.352-21.749
						c-16.916-3.021,7.25-69.476,7.25-69.476L246.951,167.205z"/>
					<path style="fill:#76413B;" d="M269.621,172.447c6.492-7.526,9.732-16.687,10.856-26.259l-33.525,21.016
						c0,0-1.034,10.719-3.699,19.153C253.283,184.621,262.8,180.356,269.621,172.447z"/>
				</g>
				<g>
					<g>
						<path style="fill:#965450;" d="M217.349,125.519c0,0-15.708,39.873,16.916,48.935c32.623,9.062,62.226-32.623,64.642-54.976
							c2.417-22.353-6.645-48.935-39.873-43.498C225.807,81.418,217.349,125.519,217.349,125.519z"/>
						<path style="fill:#965450;" d="M290.449,133.977c0,0,8.458-13.895,17.52-6.041c9.062,7.854-14.499,32.019-24.77,22.957
							C272.929,141.831,290.449,133.977,290.449,133.977z"/>
					</g>
					<path style="fill:#76413B;" d="M237.742,123.219c6.181-8.691,19.199-35.253,19.338-46.22
						c-3.065-2.825-14.362,1.958-19.259,6.855c-18.693,14.215-20.472,41.666-20.472,41.666s-1.85,4.696-2.961,11.231
						C223.263,134.078,231.899,131.435,237.742,123.219z"/>
				</g>
			</g>
		</g>
		<g>
			<g>
				<path style="fill:#76413B;" d="M126.728,215.536c0,0-5.991,21.321,16.916,22.957c33.832,2.416,71.023-18.826,71.023-18.826
					l-13.025-32.525L126.728,215.536z"/>
				<g>
					<path style="fill:#800eb5;" d="M289.667,206.667C273,205,280.179,181.1,280.179,181.1l-40.477,0.604
						c0,0,1.267,4.901-3.625,9.062c-3.41,2.901-4.539-2.426-15.252-7.138c-25.033-13.52-51.808,11.971-51.808,11.971
						c2.96,16.283,12.264,27.796,19.032,34.28c-1.006,1.941-4.923,8.592-5.716,10.787c-7.854,21.749,6.017,63.677,6.017,63.677
						c45.31,22.957,102.099,8.458,102.099,8.458l8.458-33.227c0,0,27.186-17.52,36.248-36.852
						C344.217,223.389,311.441,208.844,289.667,206.667z"/>
					<g>
						<path style="fill:#800eb5;" d="M317.375,215.12c-1.971,8.068-4.822,15.826-9.648,22.794
							c-9.623,13.89-24.068,22.87-38.873,30.415c-15.727,8.015-32.217,16.499-50.072,17.949c-8.779,0.713-18.75,0.217-27.013-3.096
							c-2.637-1.057-7.246-2.897-9.768-4.181c1.739,13.761,6.35,25.344,6.35,25.344c45.31,22.957,102.099,8.458,102.099,8.458
							l8.458-33.227c0,0,27.186-17.52,36.248-36.852C340.704,230.884,330.843,221.318,317.375,215.12z"/>
						<path style="fill:#800eb5;" d="M198,216c-3.228-5.339-6.482-8.897-7.742-14.897c-1.26-6.003-1.298-12.012-1.231-18.071
							c-11.692,4.666-20.01,12.567-20.01,12.567c2.96,16.283,12.264,27.796,19.032,34.28C187.302,231.321,194.666,219.338,198,216z"
							/>
					</g>
				</g>
			</g>
			<g>
				<g>
					<path style="fill:#965450;" d="M336.363,265.679c0,0,4.833,76.725,1.812,93.037c-3.021,16.312-44.102,165.533-35.644,97.266
						c0,0-11.479,50.747-4.833-1.812c0,0-13.895,54.976-6.041,0c0,0-12.284,56.386-2.618-18.124c0,0-21.749,25.776,0.403-7.25
						c0,0,10.069-76.927,13.291-90.218c0,0-21.346-79.746-12.486-96.662C299.108,225,336.565,236.68,336.363,265.679z"/>
					<path style="fill:#76413B;" d="M300.687,286.622c7.389,0.013,13.833-0.84,20.755-3.487c5.298-2.026,10.674-4.248,15.515-7.283
						c-0.347-6.25-0.594-10.174-0.594-10.174c0.201-28.999-37.255-40.678-46.116-23.763c-3.718,7.099-2.116,25.262,0.995,43.954
						C294.362,286.259,297.492,286.617,300.687,286.622z"/>
				</g>
				<path style="fill:#800eb5;" d="M287,279c0,0-5.072-70.971,23.99-65.881c31.677,5.548,30.823,35.861,29.01,58.214
					C340,271.333,317.207,285.041,287,279z"/>
			</g>
		</g>
		<g>
			<g>
				<g>
					<path style="fill:#5E2626;" d="M238.8,121.392c-0.29,1.555-0.842,3.053-1.537,4.479c-0.339,0.72-0.736,1.411-1.165,2.086
						c-0.211,0.34-0.42,0.683-0.671,0.997c-0.244,0.319-0.475,0.648-0.731,0.96l-0.791,0.92c-0.271,0.301-0.58,0.569-0.869,0.855
						c-0.286,0.289-0.593,0.559-0.917,0.81c-0.32,0.256-0.627,0.528-0.977,0.747l-1.045,0.66c-0.344,0.225-0.734,0.381-1.099,0.573
						c-0.372,0.182-0.748,0.351-1.15,0.467l-1.18,0.385l0.258-1.637c0.53,0.401,1.035,0.838,1.553,1.255
						c0.52,0.415,1.02,0.859,1.524,1.296c1.005,0.881,1.993,1.786,2.922,2.774c-1.247-0.535-2.435-1.153-3.607-1.796
						c-0.583-0.324-1.172-0.642-1.74-0.988c-0.569-0.345-1.153-0.669-1.711-1.03l-1.412-0.914l1.67-0.724l0.993-0.431
						c0.337-0.125,0.648-0.312,0.961-0.491c0.313-0.179,0.646-0.317,0.942-0.527l0.9-0.607c0.298-0.204,0.568-0.454,0.864-0.665
						c0.295-0.213,0.577-0.445,0.842-0.7c0.268-0.251,0.554-0.481,0.809-0.748l0.789-0.78c0.509-0.541,1.003-1.098,1.489-1.672
						c0.248-0.283,0.491-0.571,0.717-0.873l0.7-0.896c0.459-0.606,0.91-1.225,1.353-1.855
						C237.928,122.691,238.37,122.053,238.8,121.392z"/>
				</g>
				<path style="fill:#FFFFFF;" d="M224.111,149.137c0,0,21.544-13.057,32.316,3.264L224.111,149.137z"/>
				<g>
					<path style="fill:#252028;" d="M250.225,119.107c0,0,0.002,0.417,0.027,1.132c0.022,0.714,0.072,1.729,0.198,2.909
						c0.143,1.17,0.365,2.541,0.918,3.749c0.557,1.22,1.463,2.064,2.754,2.198l0.243,0.028l0.122,0.016l0.03,0.004
						c0.021,0.001-0.157-0.001-0.077,0l0.01,0l0.019,0l0.076-0.001l0.609-0.008c0.448,0.021,0.718-0.069,1.021-0.119
						c0.297-0.022,0.624-0.19,0.943-0.264c0.318-0.102,0.603-0.284,0.907-0.415c0.556-0.362,1.103-0.736,1.565-1.188
						c0.459-0.449,0.882-0.91,1.238-1.374c0.358-0.461,0.671-0.909,0.933-1.318c0.262-0.41,0.484-0.779,0.659-1.089
						c0.354-0.619,0.536-0.994,0.536-0.994s-0.006,0.417-0.135,1.138c-0.068,0.359-0.155,0.799-0.315,1.286
						c-0.147,0.492-0.341,1.045-0.63,1.619c-0.27,0.583-0.626,1.197-1.093,1.795c-0.212,0.314-0.507,0.585-0.772,0.891
						c-0.28,0.296-0.629,0.539-0.958,0.814c-0.733,0.468-1.503,0.924-2.464,1.124c-0.483,0.103-1.001,0.208-1.369,0.197
						l-0.608,0.027l-0.076,0.003l-0.125,0l-0.045-0.004l-0.182-0.016l-0.364-0.035c-0.97-0.132-1.969-0.578-2.714-1.262
						c-0.768-0.673-1.196-1.556-1.485-2.363c-0.294-0.818-0.395-1.624-0.445-2.367c-0.054-0.744-0.013-1.439,0.051-2.07
						c0.126-1.262,0.39-2.275,0.606-2.97C250.052,119.486,250.225,119.107,250.225,119.107z"/>
				</g>
				<g>
					<path style="fill:#252028;" d="M245.002,106.05c0,0,0.348,0.316,0.953,0.815c0.315,0.242,0.678,0.54,1.113,0.857
						c0.423,0.328,0.934,0.653,1.459,1.029c0.549,0.348,1.135,0.726,1.773,1.087c0.317,0.181,0.642,0.366,0.974,0.556
						c0.341,0.172,0.689,0.348,1.043,0.527c0.688,0.385,1.463,0.662,2.205,1.02c0.769,0.303,1.554,0.604,2.343,0.889
						c0.809,0.236,1.599,0.533,2.406,0.743c0.814,0.18,1.599,0.445,2.384,0.608c0.788,0.152,1.551,0.321,2.279,0.493
						c0.734,0.122,1.435,0.241,2.086,0.368c0.651,0.122,1.253,0.248,1.793,0.309c0.538,0.068,1.013,0.16,1.405,0.229
						c0.786,0.143,1.246,0.261,1.246,0.261s-0.433,0.16-1.21,0.376c-0.388,0.106-0.863,0.242-1.413,0.361
						c-0.275,0.06-0.568,0.139-0.879,0.194c-0.312,0.045-0.64,0.072-0.985,0.112c-0.689,0.073-1.441,0.164-2.24,0.198
						c-0.797-0.013-1.642-0.039-2.518-0.089c-0.874-0.06-1.77-0.24-2.682-0.395c-0.913-0.161-1.808-0.484-2.718-0.736
						c-0.884-0.337-1.768-0.689-2.603-1.102c-0.819-0.454-1.641-0.864-2.354-1.405c-0.361-0.262-0.727-0.498-1.057-0.769
						c-0.323-0.281-0.638-0.555-0.945-0.823c-0.607-0.538-1.112-1.127-1.569-1.661c-0.451-0.545-0.829-1.068-1.124-1.56
						c-0.322-0.467-0.526-0.934-0.713-1.292C245.109,106.506,245.002,106.05,245.002,106.05z"/>
				</g>
			</g>
			<g>
				<path style="fill:#352C38;" d="M281.387,107.999c0.604,10.27,10.27,7.854,11.479,21.749s7.933,9.883,10.874,12.974
					c7.866,8.27-1.208,16.629-1.208,16.629c9.062-21.749-18.124-7.25-16.312-23.561c1.812-16.312-16.916-0.604-16.312-16.312
					c0.604-15.707-18.728,0-21.145-22.957c-2.416-22.957,15.708-39.873,15.708-39.873s12.687-13.895,33.228-4.229
					c20.541,9.666,9.666,29.603,25.978,30.207c16.312,0.604,24.77,3.625,19.936,22.957c-4.833,19.332,13.291,1.812,17.52,22.957
					c4.229,21.145,12.083,18.124,18.124,8.458c0,0-3.625,16.916-15.707,10.27c0,0,18.124,4.833,4.229,27.186l-3.021-7.25
					c0,0-10.874,12.687-1.208,22.957c0,0-11.479-0.604-12.687-10.27c0,0,1.208,9.666,8.458,11.479c0,0-12.687,3.625-18.124-7.25
					c0,0,3.625,8.458-4.833,18.124c0,0,0-6.645-4.833-13.895c0,0,6.041,7.854-3.021,13.895l-4.833-11.479
					c0,0-9.666,7.25-4.229,15.103c0,0-14.114,4.797-11.114-8.536c0,0-7.25,6.417,0,13.667c0,0-15.667,0.667-12.447-15.401
					c3.811-19.018,24.609-47.267,6.441-55.499c-12.909-5.849-4.253-5.068-15.128-20.775c-10.874-15.707-17.291,0.757-26.354-16.763"
					/>
				<g>
					<path style="fill:#352C38;" d="M267.492,59.669c0,0,0.464-0.539,1.461-1.426c0.995-0.883,2.537-2.121,4.739-3.316
						c2.192-1.196,5.045-2.38,8.51-2.995c3.452-0.627,7.513-0.622,11.747,0.372c1.046,0.291,2.113,0.588,3.201,0.891
						c1.049,0.412,2.119,0.832,3.206,1.258c0.279,0.116,0.529,0.196,0.836,0.344l0.782,0.384c0.523,0.255,1.05,0.506,1.586,0.832
						c1.084,0.603,2.12,1.279,3.126,2.044c2.01,1.525,3.855,3.427,5.346,5.644c1.49,2.22,2.582,4.733,3.451,7.296
						c0.885,2.555,1.539,5.205,2.547,7.599c0.988,2.405,2.532,4.388,4.882,5.192c1.157,0.42,2.441,0.613,3.756,0.677
						c1.397,0.06,2.836,0.117,4.264,0.227c2.858,0.224,5.758,0.55,8.63,1.406c1.43,0.435,2.851,1.019,4.172,1.851
						c1.318,0.831,2.503,1.962,3.372,3.295c0.876,1.331,1.423,2.833,1.715,4.324c0.295,1.497,0.357,2.989,0.314,4.448
						c-0.078,2.927-0.644,5.72-1.306,8.424c-0.156,0.66-0.311,1.318-0.467,1.974c-0.119,0.644-0.253,1.258-0.325,1.891
						c-0.177,1.257-0.207,2.528,0.098,3.529c0.165,0.488,0.399,0.893,0.73,1.214c0.356,0.302,0.804,0.552,1.338,0.735
						c1.081,0.355,2.36,0.517,3.634,0.747c1.281,0.223,2.595,0.5,3.853,0.987c1.258,0.479,2.445,1.184,3.43,2.075
						c1.984,1.79,3.162,4.12,3.877,6.367c0.162,0.57,0.342,1.131,0.483,1.693c0.123,0.565,0.245,1.124,0.366,1.678
						c0.215,1.072,0.418,2.153,0.659,3.163c0.469,2.046,1.032,3.985,1.696,5.766c0.665,1.776,1.452,3.417,2.498,4.697
						c1.013,1.298,2.391,2.152,3.791,2.135c1.4,0.012,2.64-0.654,3.617-1.351c1.959-1.455,3.174-3.025,3.986-4.062
						c0.798-1.062,1.183-1.659,1.183-1.659s-0.345,0.62-1.076,1.735c-0.375,0.551-0.838,1.233-1.453,1.984
						c-0.61,0.754-1.362,1.593-2.358,2.378c-0.984,0.768-2.26,1.568-3.889,1.642c-0.802,0.036-1.656-0.154-2.428-0.554
						c-0.782-0.391-1.45-0.996-2.057-1.661c-2.391-2.751-3.726-6.592-4.834-10.73c-0.283-1.053-0.511-2.101-0.763-3.193
						c-0.13-0.523-0.262-1.052-0.394-1.585c-0.148-0.527-0.334-1.044-0.499-1.573c-0.726-2.081-1.863-4.096-3.559-5.536
						c-1.691-1.475-3.963-2.111-6.445-2.438c-1.247-0.189-2.559-0.302-3.972-0.742c-0.705-0.23-1.441-0.587-2.092-1.14
						c-0.641-0.582-1.087-1.346-1.35-2.117c-0.483-1.552-0.407-3.037-0.247-4.444c0.07-0.71,0.213-1.426,0.333-2.119
						c0.148-0.67,0.296-1.342,0.445-2.016c0.592-2.616,1.098-5.295,1.16-7.959c0.078-2.646-0.295-5.341-1.682-7.403
						c-1.343-2.091-3.695-3.385-6.261-4.14c-2.57-0.784-5.343-1.123-8.11-1.351c-1.389-0.114-2.768-0.175-4.18-0.243
						c-1.489-0.08-3.008-0.303-4.475-0.844c-1.465-0.533-2.845-1.461-3.865-2.647c-1.03-1.183-1.727-2.535-2.272-3.863
						c-1.072-2.676-1.666-5.312-2.49-7.792c-0.794-2.486-1.801-4.807-3.092-6.893c-1.309-2.072-2.944-3.862-4.773-5.337
						c-0.912-0.738-1.877-1.407-2.846-1.984c-0.466-0.307-0.992-0.579-1.51-0.85l-0.77-0.407c-0.211-0.11-0.506-0.222-0.754-0.332
						c-1.035-0.442-2.053-0.876-3.052-1.303c-1.036-0.321-2.052-0.636-3.048-0.945c-4.037-1.042-7.914-1.243-11.285-0.803
						c-3.377,0.433-6.221,1.453-8.43,2.526c-2.211,1.084-3.833,2.178-4.871,3.001C267.991,59.16,267.492,59.669,267.492,59.669z"/>
				</g>
				<g>
					<path style="fill:#352C38;" d="M304.344,162.372c0,0,0.156-0.467,0.447-1.342c0.301-0.874,0.653-2.175,0.953-3.847
						c0.054-0.42,0.086-0.864,0.134-1.325c0-0.461,0.01-0.947-0.047-1.438c-0.096-0.988-0.467-2.009-1.193-2.818
						c-0.727-0.814-1.808-1.374-3.037-1.747c-1.233-0.376-2.6-0.626-4.051-0.87c-1.451-0.251-2.994-0.492-4.594-0.978
						c-1.579-0.467-3.311-1.306-4.517-2.89c-1.211-1.589-1.514-3.655-1.446-5.528c0.022-0.451,0.044-0.905,0.067-1.362
						c0.02-0.439,0.079-0.92,0.053-1.308c0.004-0.804-0.067-1.661-0.274-2.409c-0.217-0.746-0.557-1.389-1.074-1.829
						c-0.512-0.447-1.219-0.722-2.036-0.875c-1.647-0.307-3.562-0.161-5.584-0.283c-1.014-0.063-2.082-0.178-3.172-0.544
						c-1.082-0.353-2.188-1.058-2.923-2.05c-0.741-0.982-1.144-2.122-1.32-3.197c-0.215-1.09-0.226-2.148-0.216-3.195l0.002-1.429
						c-0.056-0.42-0.05-0.844-0.14-1.261c-0.123-0.862-0.424-1.615-0.841-2.237c-0.822-1.249-2.478-1.824-4.303-2.176
						c-1.818-0.365-3.787-0.585-5.721-1.168c-1.934-0.537-3.844-1.531-5.315-2.949c-1.458-1.437-2.454-3.189-3.093-4.948
						c-0.665-1.761-0.999-3.54-1.226-5.259c-0.05-0.431-0.1-0.858-0.15-1.283c-0.053-0.507-0.042-0.855-0.067-1.285
						c-0.03-0.82-0.06-1.628-0.089-2.423c-0.028-0.794,0.075-1.617,0.106-2.398c0.065-0.784,0.057-1.566,0.182-2.305
						c0.388-2.974,0.984-5.658,1.76-7.952c0.374-1.151,0.719-2.227,1.143-3.184c0.404-0.963,0.729-1.865,1.131-2.633
						c0.38-0.776,0.719-1.468,1.015-2.07c0.331-0.583,0.614-1.078,0.842-1.48c0.458-0.801,0.703-1.228,0.703-1.228
						s-0.204,0.448-0.586,1.288c-0.19,0.419-0.423,0.936-0.698,1.544c-0.245,0.62-0.527,1.332-0.843,2.13
						c-0.344,0.785-0.604,1.7-0.936,2.675c-0.352,0.969-0.617,2.052-0.905,3.203c-0.599,2.298-0.992,4.948-1.244,7.836
						c-0.086,0.722-0.037,1.453-0.064,2.199c0.008,0.751-0.058,1.491,0.009,2.284c0.061,0.793,0.123,1.599,0.186,2.417
						c0.035,0.388,0.051,0.87,0.103,1.189c0.062,0.401,0.124,0.805,0.186,1.212c0.272,1.617,0.648,3.262,1.297,4.802
						c0.636,1.54,1.497,2.997,2.702,4.126c1.217,1.111,2.74,1.886,4.465,2.328c1.717,0.473,3.586,0.659,5.563,1.044
						c0.988,0.201,2.015,0.425,3.047,0.894c1.024,0.454,2.046,1.2,2.737,2.196c0.686,0.988,1.096,2.117,1.264,3.197
						c0.116,0.544,0.127,1.11,0.186,1.665l0.005,1.52c-0.015,0.917-0.009,1.836,0.156,2.677c0.128,0.859,0.426,1.619,0.859,2.203
						c0.833,1.188,2.512,1.593,4.346,1.698c1.835,0.128,3.795-0.013,5.885,0.411c1.033,0.216,2.151,0.634,3.04,1.443
						c0.898,0.802,1.411,1.893,1.676,2.915c0.118,0.516,0.219,1.028,0.242,1.526c0.063,0.5,0.049,1.001,0.042,1.5
						c0.008,0.519-0.053,0.935-0.09,1.389c-0.037,0.438-0.074,0.874-0.111,1.308c-0.116,1.628,0.094,3.215,0.921,4.375
						c0.815,1.17,2.15,1.923,3.573,2.419c1.421,0.512,2.91,0.827,4.349,1.149c1.44,0.324,2.854,0.63,4.165,1.132
						c1.302,0.494,2.533,1.222,3.342,2.264c0.81,1.037,1.139,2.265,1.169,3.339c0.025,0.539-0.021,1.053-0.055,1.538
						c-0.082,0.479-0.148,0.938-0.233,1.366c-0.222,0.844-0.41,1.597-0.668,2.222c-0.225,0.636-0.426,1.168-0.624,1.585
						C304.542,161.921,304.344,162.372,304.344,162.372z"/>
				</g>
			</g>
		</g>
		<path style="fill:#965450;" d="M203.697,111.364c0,0-0.137-13.065,2.978-18.145c3.114-5.079,9.191-11.361,9.465-15.909
			c0.273-4.548,5.202-2.454,4.039,5.2c-1.163,7.655-12.15,21.038-12.15,21.038s13.881-21.316,19.284-29.701
			c5.84-9.062,9.929-16.672,11.881-14.097c1.952,2.575-13.468,29.764-13.468,29.764s6.017-9.424,9.642-14.459
			c0,0,19.332-31.616,9.917-7.188c-4.8,12.453-13.123,25.544-13.123,25.544s16.159-28.09,17.906-28.224
			c2.618-0.201-2.56,18.263-12.869,32.038c0,0,8.235-10.521,12.07-15.909c3.835-5.387,5.555,1.036,0.195,8.438
			c-5.361,7.402-8.158,15.091-8.158,15.091s-8.474,13.319-15.806,22.164c-4.343,5.239-42.801,61.546-50.345,77.128
			c-12.284,25.374-30.408,42.843-47.823,29.193C104.98,215.813,189.561,124.559,203.697,111.364z"/>
	</g>
</g>
</svg>
